<?xml version="1.0" encoding="UTF-8" standalone="no"?>
<svg
   xmlns:dc="http://purl.org/dc/elements/1.1/"
   xmlns:cc="http://creativecommons.org/ns#"
   xmlns:rdf="http://www.w3.org/1999/02/22-rdf-syntax-ns#"
   xmlns:svg="http://www.w3.org/2000/svg"
   xmlns="http://www.w3.org/2000/svg"
   xmlns:sodipodi="http://sodipodi.sourceforge.net/DTD/sodipodi-0.dtd"
   xmlns:inkscape="http://www.inkscape.org/namespaces/inkscape"
   id="Layer_4"
   width="536.9"
   height="128"
   version="1.1"
   sodipodi:docname="logo.svg"
   inkscape:version="0.92.4 (unknown)">
  <metadata
     id="metadata58">
    <rdf:RDF>
      <cc:Work
         rdf:about="">
        <dc:format>image/svg+xml</dc:format>
        <dc:type
           rdf:resource="http://purl.org/dc/dcmitype/StillImage" />
      </cc:Work>
    </rdf:RDF>
  </metadata>
  <defs
     id="defs56" />
  <sodipodi:namedview
     pagecolor="#ffffff"
     bordercolor="#666666"
     borderopacity="1"
     objecttolerance="10"
     gridtolerance="10"
     guidetolerance="10"
     inkscape:pageopacity="0"
     inkscape:pageshadow="2"
     inkscape:window-width="1920"
     inkscape:window-height="1016"
     id="namedview54"
     showgrid="false"
     showguides="true"
     inkscape:guide-bbox="true"
     inkscape:zoom="1.2292791"
     inkscape:cx="387.01071"
     inkscape:cy="-15.830595"
     inkscape:window-x="1920"
     inkscape:window-y="27"
     inkscape:window-maximized="1"
     inkscape:current-layer="XMLID_1_">
    <sodipodi:guide
       position="432.56595,6.3274275"
       orientation="0,1"
       id="guide70"
       inkscape:locked="false" />
    <sodipodi:guide
       position="353.1855,-0.57522068"
       orientation="1,0"
       id="guide72"
       inkscape:locked="false" />
  </sodipodi:namedview>
  <style
     id="style2">.st0{fill:none}.st5{opacity:.2;enable-background:new}.st13,.st5{fill:#fff}</style>
  <g
     id="XMLID_2_">
    <g
       id="XMLID_3_">
      <g
         id="XMLID_4_">
        <path
           id="XMLID_33_"
           d="M78.7 58L45.1 0H.3l37 64-37 64h44.8l33.5-58c2.2-3.7 2.2-8.3.1-12z"
           class="st0" />
        <path
           id="XMLID_32_"
           fill="#ffc107"
           d="M59.4 102.3L48.8 83.9 23.3 128h21.8l14.6-25.2z" />
        <path
           id="XMLID_31_"
           d="M78.7 58L45.1 0H.3l37 64-37 64h44.8l33.5-58c2.2-3.7 2.2-8.3.1-12z"
           class="st0" />
        <path
           id="XMLID_30_"
           fill="#0f9d58"
           d="M37.3 64l11.5 19.9L23.3 128H.3z" />
        <path
           id="XMLID_29_"
           d="M78.7 58L45.1 0H.3l37 64-37 64h44.8l33.5-58c2.2-3.7 2.2-8.3.1-12z"
           class="st0" />
        <path
           id="XMLID_28_"
           fill="#bf360c"
           d="M45.1 127H23.8l-.5 1h21.8l14.6-25.2-.3-.5z"
           opacity=".2" />
        <path
           id="XMLID_27_"
           d="M78.7 58L45.1 0H.3l37 64-37 64h44.8l33.5-58c2.2-3.7 2.2-8.3.1-12z"
           class="st0" />
        <path
           id="XMLID_26_"
           fill="#263238"
           d="M.8 127l-.5 1h23l.5-1z"
           opacity=".2" />
        <path
           id="XMLID_25_"
           d="M78.7 58L45.1 0H.3l37 64-37 64h44.8l33.5-58c2.2-3.7 2.2-8.3.1-12z"
           class="st0" />
        <path
           id="XMLID_24_"
           d="M.3 128h.5l36.8-63.5-.3-.5z"
           class="st5" />
        <path
           id="XMLID_23_"
           d="M78.7 58L45.1 0H.3l37 64-37 64h44.8l33.5-58c2.2-3.7 2.2-8.3.1-12z"
           class="st0" />
        <radialGradient
           id="XMLID_34_"
           cx="59.537"
           cy="27.626"
           r="44.264"
           gradientTransform="matrix(1 0 0 -1 0 130)"
           gradientUnits="userSpaceOnUse">
          <stop
             offset="0"
             stop-color="#bf360c"
             stop-opacity=".2"
             id="stop15" />
          <stop
             offset="1"
             stop-color="#bf360c"
             stop-opacity=".02"
             id="stop17" />
        </radialGradient>
        <path
           id="XMLID_22_"
           fill="url(#XMLID_34_)"
           d="M59.7 102.8L48.8 83.9l-2.7 4.6z" />
        <path
           id="XMLID_21_"
           d="M78.7 58L45.1 0H.3l37 64-37 64h44.8l33.5-58c2.2-3.7 2.2-8.3.1-12z"
           class="st0" />
        <radialGradient
           id="XMLID_35_"
           cx="59.411"
           cy="27.346"
           r="44.623"
           gradientTransform="matrix(1 0 0 -1 0 130)"
           gradientUnits="userSpaceOnUse">
          <stop
             offset="0"
             stop-color="#263238"
             stop-opacity=".2"
             id="stop22" />
          <stop
             offset="1"
             stop-color="#263238"
             stop-opacity=".02"
             id="stop24" />
        </radialGradient>
        <path
           id="XMLID_20_"
           fill="url(#XMLID_35_)"
           d="M46.1 88.5l2.7-4.6L37.3 64l-5.5 9.5z" />
        <path
           id="XMLID_19_"
           d="M78.7 58L45.1 0H.3l37 64-37 64h44.8l33.5-58c2.2-3.7 2.2-8.3.1-12z"
           class="st0" />
        <g
           id="XMLID_16_">
          <g
             id="XMLID_17_">
            <path
               id="XMLID_18_"
               fill="#4285f4"
               d="M23.3 0H.3l59.4 102.8 11.5-19.9z" />
          </g>
        </g>
        <path
           id="XMLID_15_"
           d="M78.7 58L45.1 0H.3l37 64-37 64h44.8l33.5-58c2.2-3.7 2.2-8.3.1-12z"
           class="st0" />
        <path
           id="XMLID_14_"
           fill="#db4437"
           d="M78.7 70c2.1-3.7 2.1-8.3 0-12L45.1 0H23.3l47.9 82.9L78.7 70z" />
        <path
           id="XMLID_13_"
           d="M78.7 58L45.1 0H.3l37 64-37 64h44.8l33.5-58c2.2-3.7 2.2-8.3.1-12z"
           class="st0" />
        <path
           id="XMLID_12_"
           fill="#1a237e"
           d="M71.2 82.9l-.3-.5-11.2 19.4L.8 0H.3l59.4 102.8 11.5-19.9z"
           opacity=".2" />
        <path
           id="XMLID_11_"
           d="M78.7 58L45.1 0H.3l37 64-37 64h44.8l33.5-58c2.2-3.7 2.2-8.3.1-12z"
           class="st0" />
        <path
           id="XMLID_10_"
           d="M45.1 1l33.5 58c1 1.7 1.5 3.6 1.6 5.5.1-2.2-.4-4.5-1.6-6.5L45.1 0H.3l.6 1h44.2z"
           class="st5" />
        <path
           id="XMLID_9_"
           d="M78.7 58L45.1 0H.3l37 64-37 64h44.8l33.5-58c2.2-3.7 2.2-8.3.1-12z"
           class="st0" />
        <path
           id="XMLID_8_"
           fill="#3e2723"
           d="M71.2 82.9L78.7 70c1.2-2 1.7-4.3 1.6-6.5-.1 1.9-.6 3.8-1.6 5.5L71 82.4l.2.5z"
           opacity=".2" />
        <path
           id="XMLID_6_"
           d="M78.7 58L45.1 0H.3l37 64-37 64h44.8l33.5-58c2.2-3.7 2.2-8.3.1-12z"
           class="st0" />
        <radialGradient
           id="XMLID_36_"
           cx="-.74"
           cy="129"
           r="134.35"
           gradientTransform="matrix(1 0 0 -1 0 130)"
           gradientUnits="userSpaceOnUse">
          <stop
             offset="0"
             stop-color="#fff"
             stop-opacity=".1"
             id="stop41" />
          <stop
             offset="1"
             stop-color="#fff"
             stop-opacity="0"
             id="stop43" />
        </radialGradient>
        <path
           id="XMLID_5_"
           fill="url(#XMLID_36_)"
           d="M78.7 58L45.1 0H.3l37 64-37 64h44.8l33.5-58c2.2-3.7 2.2-8.3.1-12z" />
      </g>
    </g>
  </g>
  <g
     id="XMLID_1_">
    <path
       d="m 176.6,33.2 c 0,7 -2.1,12.6 -6.2,16.7 -4.7,4.9 -10.9,7.4 -18.4,7.4 -7.2,0 -13.4,-2.5 -18.4,-7.5 -5.1,-5 -7.6,-11.2 -7.6,-18.7 0,-7.5 2.5,-13.6 7.6,-18.7 5.1,-5 11.2,-7.5 18.4,-7.5 3.6,0 7,0.7 10.3,2.1 3.3,1.4 5.9,3.3 7.8,5.6 l -4.4,4.4 c -3.3,-4 -7.9,-6 -13.7,-6 -5.3,0 -9.8,1.9 -13.7,5.6 -3.8,3.7 -5.8,8.5 -5.8,14.5 0,5.9 1.9,10.7 5.8,14.5 3.9,3.7 8.4,5.6 13.7,5.6 5.6,0 10.3,-1.9 14,-5.6 2.4,-2.4 3.8,-5.8 4.2,-10.1 H 152 v -6 h 24.3 c 0.1,1.2 0.3,2.5 0.3,3.7 z m 6.3,23 V 6.1 h 15.3 c 7.7,0 13.9,2.3 18.5,7 4.6,4.6 6.9,10.7 6.9,18.1 0,7.4 -2.3,13.5 -6.9,18.1 -4.6,4.6 -10.8,7 -18.5,7 h -15.3 z m 6.5,-6.2 h 8.9 c 5.8,0 10.4,-1.7 13.8,-5 3.4,-3.3 5.1,-8 5.1,-13.9 0,-5.9 -1.7,-10.6 -5.1,-13.9 -3.4,-3.3 -8,-5 -13.8,-5 h -8.9 z m 89,-16.8 c 0,7 -2.1,12.6 -6.2,16.7 -4.7,4.9 -10.9,7.4 -18.4,7.4 -7.2,0 -13.4,-2.5 -18.4,-7.5 -5.1,-5 -7.6,-11.2 -7.6,-18.7 0,-7.5 2.5,-13.6 7.6,-18.7 5.1,-5 11.2,-7.5 18.4,-7.5 3.6,0 7,0.7 10.3,2.1 3.3,1.4 5.9,3.3 7.8,5.6 l -4.4,4.4 c -3.3,-4 -7.9,-6 -13.7,-6 -5.3,0 -9.8,1.9 -13.7,5.6 -3.8,3.7 -5.8,8.5 -5.8,14.5 0,5.9 1.9,10.7 5.8,14.5 3.9,3.7 8.4,5.6 13.7,5.6 5.6,0 10.3,-1.9 14,-5.6 2.4,-2.4 3.8,-5.8 4.2,-10.1 h -18.2 v -6 H 278 c 0.2,1.2 0.4,2.5 0.4,3.7 z m 23.2,23 V 6.1 h 15.3 c 7.7,0 13.9,2.3 18.5,7 4.6,4.6 6.9,10.7 6.9,18.1 0,7.4 -2.3,13.5 -6.9,18.1 -4.6,4.6 -10.8,7 -18.5,7 H 301.6 Z M 308,50 h 8.9 c 5.8,0 10.4,-1.7 13.8,-5 3.4,-3.3 5.1,-8 5.1,-13.9 0,-5.9 -1.7,-10.6 -5.1,-13.9 -3.4,-3.3 -8,-5 -13.8,-5 H 308 Z m 55.4,7.3 c -5.2,0 -9.4,-1.7 -12.6,-5.2 -3.2,-3.5 -4.9,-7.8 -4.9,-13.1 0,-5 1.6,-9.3 4.7,-12.9 3.1,-3.6 7.2,-5.4 12.1,-5.4 5.1,0 9.2,1.7 12.2,5 3.1,3.3 4.6,7.7 4.6,13.3 l -0.1,1.2 h -27.1 c 0.2,3.5 1.3,6.2 3.5,8.2 2.1,2 4.6,3 7.5,3 4.6,0 7.7,-2 9.4,-5.9 l 5.7,2.4 c -1.1,2.7 -3,4.9 -5.5,6.7 -2.6,1.8 -5.8,2.7 -9.5,2.7 z m 9.2,-22.4 c -0.1,-2 -1,-3.8 -2.7,-5.6 -1.7,-1.8 -4.1,-2.7 -7.4,-2.7 -2.4,0 -4.4,0.7 -6.2,2.2 -1.8,1.5 -3,3.5 -3.6,6 h 19.9 z M 393,56.2 379.1,21.9 h 7 l 10.1,26.6 h 0.1 l 10.2,-26.6 h 6.9 l -14,34.3 z m 30.7,0 h -6.4 V 6.1 h 29.3 v 6.2 h -22.8 v 16.5 h 20.6 v 6 h -20.6 v 21.4 z m 42.3,1.1 c -5.2,0 -9.4,-1.7 -12.6,-5.2 -3.2,-3.5 -4.9,-7.8 -4.9,-13.1 0,-5 1.6,-9.3 4.7,-12.9 3.2,-3.6 7.2,-5.4 12.1,-5.4 5.1,0 9.2,1.7 12.2,5 3.1,3.3 4.6,7.7 4.6,13.3 l -0.1,1.2 h -27.1 c 0.2,3.5 1.3,6.2 3.5,8.2 2.1,2 4.6,3 7.5,3 4.6,0 7.7,-2 9.4,-5.9 l 5.7,2.4 c -1.1,2.7 -3,4.9 -5.5,6.7 -2.7,1.8 -5.8,2.7 -9.5,2.7 z m 9.2,-22.4 c -0.1,-2 -1,-3.8 -2.7,-5.6 -1.7,-1.8 -4.1,-2.7 -7.4,-2.7 -2.4,0 -4.4,0.7 -6.2,2.2 -1.8,1.5 -3,3.5 -3.6,6 h 19.9 z m 23.9,22.4 c -3.8,0 -7,-0.9 -9.5,-2.8 -2.5,-1.9 -4.3,-4.2 -5.5,-7 l 5.7,-2.4 c 1.8,4.3 4.9,6.4 9.3,6.4 2,0 3.7,-0.4 4.9,-1.3 1.3,-0.9 1.9,-2.1 1.9,-3.5 0,-2.2 -1.6,-3.8 -4.7,-4.5 l -6.9,-1.7 c -2.2,-0.6 -4.3,-1.6 -6.2,-3.2 -2,-1.6 -2.9,-3.7 -2.9,-6.3 0,-3 1.3,-5.5 4,-7.4 2.7,-1.9 5.9,-2.8 9.6,-2.8 3,0 5.7,0.7 8.1,2.1 2.4,1.4 4.1,3.3 5.1,5.9 l -5.6,2.3 c -1.3,-3 -3.9,-4.6 -7.8,-4.6 -1.9,0 -3.5,0.4 -4.8,1.2 -1.3,0.8 -2,1.9 -2,3.2 0,2 1.5,3.3 4.5,4 l 6.8,1.6 c 3.2,0.7 5.6,2 7.1,3.9 1.5,1.8 2.3,3.9 2.3,6.2 0,3.1 -1.3,5.6 -3.8,7.7 -2.3,2 -5.6,3 -9.6,3 z M 532,56.8 c -3.6,0 -6.3,-1 -8.2,-2.9 C 521.9,52 521,49.3 521,45.8 v -18 h -6 v -5.9 h 6 V 11.4 h 6.4 v 10.5 h 8.4 v 5.9 h -8.4 v 17.5 c 0,3.7 1.5,5.6 4.6,5.6 1.2,0 2.1,-0.2 2.9,-0.6 l 2.2,5.5 c -1.3,0.7 -3,1 -5.1,1 z"
       class="st13"
       id="path50"
       inkscape:connector-curvature="0"
       style="fill:#ffffff"
       sodipodi:nodetypes="scscscssccscscssccccsccscssscccsssssccscscscssccscscssccccsccscssscccsssssccssssscccccscccscsssccccccccccccccccccccccccssscscccccscccscssscccssccscscccssssccssscccscssssccccccccccssccs" />
    <text
       xml:space="preserve"
       style="font-style:normal;font-weight:normal;font-size:40px;line-height:1.25;font-family:sans-serif;letter-spacing:0px;word-spacing:0px;fill:#ffffff;fill-opacity:1;stroke:none;"
       x="253.8"
       y="35.5"
       id="text64"><tspan
         sodipodi:role="line"
         id="tspan62"
         x="253.8"
         y="70.890625" /></text>
    <text
       xml:space="preserve"
       style="font-style:normal;font-weight:normal;font-size:40px;line-height:1.25;font-family:sans-serif;letter-spacing:0px;word-spacing:0px;fill:#000000;fill-opacity:1;stroke:none"
       x="120.2616"
       y="121.19604"
       id="text68"><tspan
         sodipodi:role="line"
         id="tspan66"
         x="120.2616"
         y="121.19604"
         style="font-style:normal;font-variant:normal;font-weight:normal;font-stretch:normal;font-size:69.33333588px;font-family:'Product Sans';-inkscape-font-specification:'Product Sans';fill:#ffffff">Levante 2019</tspan></text>
    <text
       xml:space="preserve"
       style="font-style:normal;font-weight:normal;font-size:40px;line-height:1.25;font-family:sans-serif;letter-spacing:0px;word-spacing:0px;fill:#000000;fill-opacity:1;stroke:none"
       x="178.1532"
       y="188.19788"
       id="text864"><tspan
         sodipodi:role="line"
         id="tspan862"
         x="178.1532"
         y="223.5885"></tspan></text>
  </g>
</svg>
