<?xml version="1.0" encoding="UTF-8" standalone="no"?>
<svg
   xmlns:dc="http://purl.org/dc/elements/1.1/"
   xmlns:cc="http://creativecommons.org/ns#"
   xmlns:rdf="http://www.w3.org/1999/02/22-rdf-syntax-ns#"
   xmlns:svg="http://www.w3.org/2000/svg"
   xmlns="http://www.w3.org/2000/svg"
   xmlns:sodipodi="http://sodipodi.sourceforge.net/DTD/sodipodi-0.dtd"
   xmlns:inkscape="http://www.inkscape.org/namespaces/inkscape"
   id="Layer_4"
   width="134.1"
   height="32"
   version="1.1"
   sodipodi:docname="logo-monochrome.svg"
   inkscape:version="0.92.4 (unknown)">
  <metadata
     id="metadata17">
    <rdf:RDF>
      <cc:Work
         rdf:about="">
        <dc:format>image/svg+xml</dc:format>
        <dc:type
           rdf:resource="http://purl.org/dc/dcmitype/StillImage" />
      </cc:Work>
    </rdf:RDF>
  </metadata>
  <defs
     id="defs15" />
  <sodipodi:namedview
     pagecolor="#ffffff"
     bordercolor="#666666"
     borderopacity="1"
     objecttolerance="10"
     gridtolerance="10"
     guidetolerance="10"
     inkscape:pageopacity="0"
     inkscape:pageshadow="2"
     inkscape:window-width="1920"
     inkscape:window-height="1016"
     id="namedview13"
     showgrid="false"
     showguides="true"
     inkscape:guide-bbox="true"
     inkscape:zoom="4.9217"
     inkscape:cx="62.928245"
     inkscape:cy="1.1016474"
     inkscape:window-x="0"
     inkscape:window-y="27"
     inkscape:window-maximized="1"
     inkscape:current-layer="XMLID_261_">
    <sodipodi:guide
       position="28.159565,1.2930412"
       orientation="0,1"
       id="guide4531"
       inkscape:locked="false" />
    <sodipodi:guide
       position="88.788831,-14.367125"
       orientation="1,0"
       id="guide4533"
       inkscape:locked="false" />
  </sodipodi:namedview>
  <style
     id="style2">.st0{fill:#673ab7}</style>
  <g
     id="XMLID_261_">
    <path
       id="XMLID_259_"
       d="M5.2 0H0l14.8 25.6 2.6-4.5z"
       class="st0" />
    <path
       id="XMLID_258_"
       d="M19.3 14.6L10.9 0H5.8l11.9 20.6 1.7-2.9c.3-.5.4-1 .4-1.6 0-.5-.2-1.1-.5-1.5z"
       class="st0" />
    <path
       id="XMLID_257_"
       d="M9 16.7L.2 32h5.1l6.3-10.9z"
       class="st0" />
    <path
       id="XMLID_256_"
       d="M11.9 21.6L5.9 32h5.2l3.4-5.9z"
       class="st0" />
    <g
       aria-label="Levante 2019"
       style="font-style:normal;font-weight:normal;font-size:40px;line-height:1.25;font-family:sans-serif;letter-spacing:0px;word-spacing:0px;fill:#000000;fill-opacity:1;stroke:none"
       id="text4529">
      <path
         d="m 38.269795,30.712633 h -6.968 V 18.301966 h 1.594667 V 29.1873 h 5.373333 z"
         style="font-style:normal;font-variant:normal;font-weight:normal;font-stretch:normal;font-size:17.33333397px;font-family:'Product Sans';-inkscape-font-specification:'Product Sans';fill:#673ab7;fill-opacity:1"
         id="path823" />
      <path
         d="m 43.470608,30.989966 q -1.872001,0 -3.085334,-1.282666 -1.213333,-1.282667 -1.213333,-3.241334 0,-1.941333 1.178666,-3.224 1.178667,-1.3 3.016001,-1.3 1.889333,0 2.998666,1.230667 1.126667,1.213333 1.126667,3.414667 l -0.01733,0.173333 h -6.673334 q 0.03467,1.248 0.832,2.010667 0.797333,0.762666 1.906667,0.762666 1.525333,0 2.392,-1.525333 l 1.421333,0.693333 q -0.572,1.074667 -1.594666,1.681334 -1.005334,0.606666 -2.288,0.606666 z M 40.922607,25.4433 h 4.870667 q -0.06933,-0.884 -0.728,-1.456 -0.641333,-0.589334 -1.733333,-0.589334 -0.901334,0 -1.56,0.554667 -0.641334,0.554667 -0.849334,1.490667 z"
         style="font-style:normal;font-variant:normal;font-weight:normal;font-stretch:normal;font-size:17.33333397px;font-family:'Product Sans';-inkscape-font-specification:'Product Sans';fill:#673ab7;fill-opacity:1"
         id="path825" />
      <path
         d="m 52.889379,30.712633 h -1.594667 l -3.432,-8.493334 h 1.733334 l 2.496,6.586667 h 0.03467 l 2.530667,-6.586667 h 1.698667 z"
         style="font-style:normal;font-variant:normal;font-weight:normal;font-stretch:normal;font-size:17.33333397px;font-family:'Product Sans';-inkscape-font-specification:'Product Sans';fill:#673ab7;fill-opacity:1"
         id="path827" />
      <path
         d="m 58.38892,28.112633 q 0,0.624 0.52,1.04 0.537333,0.416 1.248,0.416 1.005333,0 1.785333,-0.745333 0.797334,-0.745334 0.797334,-1.750667 -0.745334,-0.589333 -2.08,-0.589333 -0.970667,0 -1.629334,0.468 -0.641333,0.468 -0.641333,1.161333 z m 2.062667,-6.170667 q 1.768,0 2.790666,0.953334 1.022667,0.936 1.022667,2.582666 v 5.234667 h -1.525333 v -1.178667 h -0.06933 q -0.988,1.456 -2.634666,1.456 -1.404,0 -2.357334,-0.832 -0.936,-0.832 -0.936,-2.08 0,-1.317333 0.988,-2.097333 1.005334,-0.78 2.669334,-0.78 1.421333,0 2.34,0.52 v -0.364 q 0,-0.832 -0.658667,-1.404 -0.658667,-0.589333 -1.542667,-0.589333 -1.334666,0 -2.114666,1.126666 l -1.404,-0.884 q 1.161333,-1.664 3.432,-1.664 z"
         style="font-style:normal;font-variant:normal;font-weight:normal;font-stretch:normal;font-size:17.33333397px;font-family:'Product Sans';-inkscape-font-specification:'Product Sans';fill:#673ab7;fill-opacity:1"
         id="path829" />
      <path
         d="m 66.063524,22.219299 h 1.525333 v 1.178667 h 0.06933 q 0.364,-0.624 1.109333,-1.04 0.762667,-0.416 1.577334,-0.416 1.56,0 2.392,0.901334 0.849333,0.884 0.849333,2.530666 v 5.338667 h -1.594667 v -5.234667 q -0.052,-2.08 -2.097333,-2.08 -0.953333,0 -1.594667,0.78 -0.641333,0.762667 -0.641333,1.837334 v 4.697333 h -1.594667 z"
         style="font-style:normal;font-variant:normal;font-weight:normal;font-stretch:normal;font-size:17.33333397px;font-family:'Product Sans';-inkscape-font-specification:'Product Sans';fill:#673ab7;fill-opacity:1"
         id="path831" />
      <path
         d="m 78.397546,30.8513 q -1.04,0 -1.733333,-0.641334 -0.676,-0.641333 -0.693333,-1.785333 V 23.6753 h -1.490667 v -1.456001 h 1.490667 v -2.6 h 1.594666 v 2.6 h 2.08 V 23.6753 h -2.08 v 4.229333 q 0,0.849333 0.329334,1.161333 0.329333,0.294667 0.745333,0.294667 0.190667,0 0.364,-0.03467 0.190667,-0.052 0.346667,-0.121333 l 0.502666,1.421333 q -0.624,0.225334 -1.456,0.225334 z"
         style="font-style:normal;font-variant:normal;font-weight:normal;font-stretch:normal;font-size:17.33333397px;font-family:'Product Sans';-inkscape-font-specification:'Product Sans';fill:#673ab7;fill-opacity:1"
         id="path833" />
      <path
         d="m 84.874256,30.989966 q -1.872,0 -3.085334,-1.282666 -1.213333,-1.282667 -1.213333,-3.241334 0,-1.941333 1.178667,-3.224 1.178667,-1.3 3.016,-1.3 1.889333,0 2.998667,1.230667 1.126666,1.213333 1.126666,3.414667 l -0.01733,0.173333 h -6.673334 q 0.03467,1.248 0.832001,2.010667 0.797333,0.762666 1.906666,0.762666 1.525334,0 2.392,-1.525333 l 1.421334,0.693333 q -0.572,1.074667 -1.594667,1.681334 -1.005333,0.606666 -2.288,0.606666 z m -2.548,-5.546666 h 4.870667 q -0.06933,-0.884 -0.728,-1.456 -0.641334,-0.589334 -1.733334,-0.589334 -0.901333,0 -1.56,0.554667 -0.641333,0.554667 -0.849333,1.490667 z"
         style="font-style:normal;font-variant:normal;font-weight:normal;font-stretch:normal;font-size:17.33333397px;font-family:'Product Sans';-inkscape-font-specification:'Product Sans';fill:#673ab7;fill-opacity:1"
         id="path835" />
      <path
         d="m 101.44249,29.1873 v 1.525333 h -7.557338 v -1.594667 l 3.068,-3.102666 q 1.542666,-1.577334 2.132,-2.357334 0.589333,-0.797333 0.589333,-1.664 0,-0.78 -0.606667,-1.334667 -0.606666,-0.554666 -1.56,-0.554666 -0.814666,0 -1.404,0.485333 -0.589333,0.485333 -0.762666,1.178667 l -1.456,-0.589334 q 0.346666,-1.092 1.334666,-1.837333 0.988,-0.762667 2.322667,-0.762667 1.612,0 2.686665,0.988 1.07467,0.988 1.07467,2.426667 0,1.716 -1.889335,3.709334 l -3.466667,3.484 z"
         style="font-style:normal;font-variant:normal;font-weight:normal;font-stretch:normal;font-size:17.33333397px;font-family:'Product Sans';-inkscape-font-specification:'Product Sans';fill:#673ab7;fill-opacity:1"
         id="path837" />
      <path
         d="m 102.9597,24.784633 q 0,-2.704 1.33466,-4.454667 1.33467,-1.750667 3.432,-1.750667 2.09734,0 3.432,1.768 1.33467,1.750667 1.33467,4.437334 0,2.669333 -1.33467,4.454667 -1.33466,1.750666 -3.432,1.750666 -2.09733,0 -3.432,-1.750666 -1.33466,-1.785334 -1.33466,-4.454667 z m 7.904,0 q 0,-2.045333 -0.86667,-3.362667 -0.84933,-1.317333 -2.27067,-1.317333 -1.42133,0 -2.27066,1.317333 -0.86667,1.317334 -0.86667,3.362667 0,2.045333 0.86667,3.38 0.84933,1.3 2.27066,1.3 1.42134,0 2.27067,-1.317333 0.86667,-1.334667 0.86667,-3.362667 z"
         style="font-style:normal;font-variant:normal;font-weight:normal;font-stretch:normal;font-size:17.33333397px;font-family:'Product Sans';-inkscape-font-specification:'Product Sans';fill:#673ab7;fill-opacity:1"
         id="path839" />
      <path
         d="m 118.29807,18.856633 v 11.856 h -1.59467 v -9.88 l -2.30533,1.005333 -0.60667,-1.352 3.484,-1.629333 z"
         style="font-style:normal;font-variant:normal;font-weight:normal;font-stretch:normal;font-size:17.33333397px;font-family:'Product Sans';-inkscape-font-specification:'Product Sans';fill:#673ab7;fill-opacity:1"
         id="path841" />
      <path
         d="m 124.17001,26.3793 q -1.42133,0 -2.58267,-1.126667 -1.12667,-1.161333 -1.12667,-2.704 0,-1.612 1.21334,-2.773334 1.21333,-1.196 2.84267,-1.196 1.716,0 2.89466,1.178667 1.17867,1.178667 1.17867,2.790667 0,1.438667 -1.16133,3.276 l -3.44934,5.165333 -1.28266,-0.884 2.92933,-4.056 -0.0347,-0.03467 q -0.55466,0.364 -1.42133,0.364 z m 2.808,-3.848001 q 0,-1.005333 -0.728,-1.716 -0.71067,-0.710666 -1.73333,-0.710666 -1.02267,0 -1.73334,0.710666 -0.71066,0.710667 -0.71066,1.716 0,1.005334 0.71066,1.716001 0.74534,0.710666 1.73334,0.710666 0.988,0 1.73333,-0.710666 0.728,-0.693334 0.728,-1.716001 z"
         style="font-style:normal;font-variant:normal;font-weight:normal;font-stretch:normal;font-size:17.33333397px;font-family:'Product Sans';-inkscape-font-specification:'Product Sans';fill:#673ab7;fill-opacity:1"
         id="path843" />
    </g>
  </g>
  <g
     id="XMLID_1_">
    <path
       d="m 44,8.4 c 0,1.8 -0.5,3.1 -1.6,4.2 -1.2,1.2 -2.7,1.9 -4.6,1.9 -1.8,0 -3.3,-0.6 -4.6,-1.9 C 31.9,11.3 31.3,9.8 31.3,7.9 31.3,6 31.9,4.5 33.2,3.2 34.5,2 36,1.4 37.8,1.4 c 0.9,0 1.8,0.2 2.6,0.5 0.8,0.3 1.5,0.8 2,1.4 l -1.1,1.1 c -0.8,-1 -2,-1.5 -3.4,-1.5 -1.3,0 -2.5,0.5 -3.4,1.4 -1,0.9 -1.4,2.1 -1.4,3.6 0,1.5 0.5,2.7 1.4,3.6 1,0.9 2.1,1.4 3.4,1.4 1.4,0 2.6,-0.5 3.5,-1.4 C 42,10.9 42.4,10 42.5,9 H 37.9 V 7.5 H 44 c -0.1,0.3 0,0.6 0,0.9 z m 1.6,5.8 V 1.6 h 3.8 c 1.9,0 3.5,0.6 4.6,1.7 1.2,1.2 1.7,2.7 1.7,4.5 0,1.8 -0.6,3.4 -1.7,4.5 -1.2,1.2 -2.7,1.7 -4.6,1.7 h -3.8 z m 1.6,-1.6 h 2.2 c 1.4,0 2.6,-0.4 3.4,-1.2 0.8,-0.8 1.3,-2 1.3,-3.5 C 54.1,6.4 53.7,5.3 52.8,4.4 52,3.6 50.8,3.1 49.4,3.1 H 47.2 Z M 69.4,8.4 c 0,1.8 -0.5,3.1 -1.6,4.2 -1.2,1.2 -2.7,1.9 -4.6,1.9 -1.8,0 -3.3,-0.6 -4.6,-1.9 -1.3,-1.3 -1.9,-2.8 -1.9,-4.7 0,-1.9 0.6,-3.4 1.9,-4.7 1.3,-1.3 2.8,-1.9 4.6,-1.9 0.9,0 1.8,0.2 2.6,0.5 0.8,0.3 1.5,0.8 2,1.4 l -1.1,1.1 c -0.8,-1 -2,-1.5 -3.4,-1.5 -1.3,0 -2.5,0.5 -3.4,1.4 -1,0.9 -1.4,2.1 -1.4,3.6 0,1.5 0.5,2.7 1.4,3.6 1,0.9 2.1,1.4 3.4,1.4 1.4,0 2.6,-0.5 3.5,-1.4 0.6,-0.6 1,-1.5 1.1,-2.5 H 63.3 V 7.5 h 6.1 z m 5.8,5.8 V 1.6 H 79 c 1.9,0 3.5,0.6 4.6,1.7 1.2,1.2 1.7,2.7 1.7,4.5 0,1.8 -0.6,3.4 -1.7,4.5 C 82.4,13.5 80.9,14 79,14 h -3.8 z m 1.6,-1.6 H 79 c 1.4,0 2.6,-0.4 3.4,-1.2 0.8,-0.8 1.3,-2 1.3,-3.5 C 83.7,6.4 83.3,5.3 82.4,4.4 81.6,3.6 80.4,3.1 79,3.1 h -2.2 z m 13.9,1.9 c -1.3,0 -2.3,-0.4 -3.2,-1.3 -0.8,-0.9 -1.2,-2 -1.2,-3.3 0,-1.2 0.4,-2.3 1.2,-3.2 0.8,-0.9 1.8,-1.3 3,-1.3 1.3,0 2.3,0.4 3.1,1.2 0.8,0.8 1.1,1.9 1.1,3.3 v 0.3 h -6.8 c 0,0.9 0.3,1.5 0.9,2 0.5,0.5 1.2,0.8 1.9,0.8 1.2,0 1.9,-0.5 2.3,-1.5 l 1.4,0.6 c -0.3,0.7 -0.7,1.2 -1.4,1.7 -0.6,0.4 -1.4,0.7 -2.3,0.7 z M 93,8.9 C 93,8.4 92.7,7.9 92.3,7.5 91.9,7.1 91.3,6.8 90.5,6.8 89.9,6.8 89.4,7 89,7.4 88.6,7.8 88.3,8.3 88.1,8.9 Z m 5.1,5.3 -3.5,-8.6 h 1.8 l 2.5,6.6 2.6,-6.6 h 1.7 l -3.5,8.6 z m 7.7,0 h -1.6 V 1.6 h 7.3 v 1.5 h -5.7 v 4.1 h 5.1 v 1.5 h -5.1 z m 10.5,0.3 c -1.3,0 -2.3,-0.4 -3.2,-1.3 -0.8,-0.9 -1.2,-2 -1.2,-3.3 0,-1.2 0.4,-2.3 1.2,-3.2 0.8,-0.9 1.8,-1.3 3,-1.3 1.3,0 2.3,0.4 3.1,1.2 0.8,0.8 1.1,1.9 1.1,3.3 v 0.3 h -6.8 c 0,0.9 0.3,1.5 0.9,2 0.5,0.5 1.2,0.8 1.9,0.8 1.2,0 1.9,-0.5 2.3,-1.5 l 1.4,0.6 c -0.3,0.7 -0.7,1.2 -1.4,1.7 -0.6,0.4 -1.3,0.7 -2.3,0.7 z m 2.3,-5.6 c 0,-0.5 -0.3,-1 -0.7,-1.4 -0.4,-0.4 -1,-0.7 -1.8,-0.7 -0.6,0 -1.1,0.2 -1.5,0.6 -0.4,0.4 -0.7,0.9 -0.9,1.5 z m 6,5.6 c -1,0 -1.7,-0.2 -2.4,-0.7 -0.6,-0.5 -1.1,-1 -1.4,-1.8 l 1.4,-0.6 c 0.5,1.1 1.2,1.6 2.3,1.6 0.5,0 0.9,-0.1 1.2,-0.3 0.3,-0.2 0.5,-0.5 0.5,-0.9 0,-0.6 -0.4,-0.9 -1.2,-1.1 l -1.7,-0.4 C 122.8,10.2 122.2,9.9 121.7,9.5 121.2,9.1 121,8.6 121,7.9 c 0,-0.8 0.3,-1.4 1,-1.8 0.7,-0.5 1.5,-0.7 2.4,-0.7 0.8,0 1.4,0.2 2,0.5 0.6,0.3 1,0.8 1.3,1.5 L 126.3,8 c -0.3,-0.8 -1,-1.1 -2,-1.1 -0.5,0 -0.9,0.1 -1.2,0.3 -0.3,0.2 -0.5,0.5 -0.5,0.8 0,0.5 0.4,0.8 1.1,1 l 1.7,0.4 c 0.8,0.2 1.4,0.5 1.8,1 0.4,0.5 0.6,1 0.6,1.5 0,0.8 -0.3,1.4 -0.9,1.9 -0.5,0.4 -1.3,0.7 -2.3,0.7 z m 8.2,-0.2 c -0.9,0 -1.6,-0.2 -2.1,-0.7 -0.5,-0.5 -0.7,-1.2 -0.7,-2 V 7.1 h -1.5 V 5.6 H 130 V 3 h 1.6 v 2.6 h 2.1 v 1.5 h -2.1 v 4.4 c 0,0.9 0.4,1.4 1.2,1.4 0.3,0 0.5,0 0.7,-0.1 l 0.6,1.4 c -0.3,0 -0.8,0.1 -1.3,0.1 z"
       class="st0"
       id="path9"
       inkscape:connector-curvature="0"
       style="fill:#673ab7"
       sodipodi:nodetypes="ssssscssccscscssccccsccssssscccsssssccssssssssccscscssccccsccssssscccsssssccscssssscccscccscssscccccccccccccccccccccscssssscccscccscsssccscccsssccsscssccsssccsscssssccccccccccssccs" />
  </g>
</svg>
